<?xml version="1.0" encoding="utf-8"?>
<!-- Generator: Adobe Illustrator 18.1.0, SVG Export Plug-In . SVG Version: 6.00 Build 0)  -->
<svg version="1.1" id="Layer_1" xmlns="http://www.w3.org/2000/svg" xmlns:xlink="http://www.w3.org/1999/xlink" x="0px" y="0px"
	 viewBox="0 0 55 37.8" enable-background="new 0 0 55 37.8" xml:space="preserve">
<g id="Layer_1_1_">
	<g>
		<path fill="#A8A8A8" d="M47,1.4c0.8,0,1.5,0.6,1.5,1.4v31.8c0,0.8-0.6,1.4-1.4,1.4h-44c-0.8,0-1.4-0.6-1.4-1.4V2.8
			C1.5,2,2.2,1.4,3,1.4H47 M47,0H3C1.4,0,0,1.3,0,3v31.8c0,1.6,1.3,3,3,3h44c1.6,0,3-1.3,3-3V2.9C50,1.3,48.7,0,47,0L47,0z"/>
		<circle fill="#E5E5E5" cx="5.1" cy="5.1" r="2"/>
		<circle cx="44.5" cy="32.3" r="1.2"/>
		<circle cx="44.5" cy="28.4" r="1.6"/>
		<g>
			<circle cx="18.6" cy="18.8" r="0.7"/>
			<path fill="#696A6D" d="M18.6,4.3c-8,0-14.5,6.5-14.5,14.5s6.5,14.5,14.5,14.5s14.5-6.5,14.5-14.5S26.6,4.3,18.6,4.3z M18.6,21.7
				c-1.6,0-2.9-1.3-2.9-2.9s1.3-2.9,2.9-2.9s2.9,1.3,2.9,2.9C21.5,20.4,20.2,21.7,18.6,21.7z"/>
		</g>
		<path fill="#545454" d="M41.2,3.3c-3,0-5.3,2.4-5.3,5.3c0,2.4,1.5,4.4,3.7,5.1l-1.8,9.7l-2.3,3.2l-0.2-0.2
			c-0.2-0.2-0.5-0.1-0.6,0.1l-3.3,4.2c-0.2,0.2-0.1,0.5,0.1,0.6l1.7,1.3c0.2,0.2,0.5,0.1,0.6-0.1l3.3-4.2c0.2-0.2,0.1-0.5-0.1-0.6
			l-0.3-0.3l2.5-3.5l1.9-10.1c0.1,0,0.1,0,0.2,0c3,0,5.3-2.4,5.3-5.3C46.5,5.6,44.1,3.3,41.2,3.3z M41.2,12.9L41.2,12.9l0.3-1.7
			c1.2-0.1,2.3-1.2,2.3-2.6S42.7,6,41.2,6c-1.4,0-2.6,1.1-2.6,2.6c0,1,0.5,1.9,1.3,2.3l-0.3,1.7c-1.6-0.6-2.8-2.2-2.8-4
			c0-2.4,2-4.3,4.3-4.3c2.4,0,4.3,2,4.3,4.3S43.5,12.9,41.2,12.9z"/>
	</g>
</g>
</svg>
