<?xml version="1.0" encoding="utf-8"?>
<!-- Generator: Adobe Illustrator 18.1.0, SVG Export Plug-In . SVG Version: 6.00 Build 0)  -->
<svg version="1.1" id="Layer_1" xmlns="http://www.w3.org/2000/svg" xmlns:xlink="http://www.w3.org/1999/xlink" x="0px" y="0px"
	 viewBox="-186 432 372 864" enable-background="new -186 432 372 864" xml:space="preserve">
<path fill="#FF6600" d="M-152.4,528.6c0-43.7,35.5-79.4,79.4-79.4c43.9,0,79.4,35.5,79.4,79.4c0,43.9-35.5,79.4-79.4,79.4
	C-117,607.9-152.4,572.5-152.4,528.6z"/>
<g>
	
		<path opacity="0.2" fill="none" stroke="#393839" stroke-width="2" stroke-linecap="round" stroke-linejoin="round" stroke-miterlimit="10" enable-background="new    " d="
		M-152.4,528.6c0-43.7,35.5-79.4,79.4-79.4c43.9,0,79.4,35.5,79.4,79.4c0,43.9-35.5,79.4-79.4,79.4
		C-117,607.9-152.4,572.5-152.4,528.6z"/>
	<path fill="none" stroke="#393839" stroke-linecap="round" stroke-linejoin="round" stroke-miterlimit="10" d="M-152.4,528.6
		c0-43.7,35.5-79.4,79.4-79.4c43.9,0,79.4,35.5,79.4,79.4c0,43.9-35.5,79.4-79.4,79.4C-117,607.9-152.4,572.5-152.4,528.6z"/>
</g>
<circle fill="#00616F" cx="-73.2" cy="528.6" r="60.1"/>
<g>
	
		<circle opacity="0.2" fill="none" stroke="#393839" stroke-width="2" stroke-linecap="round" stroke-linejoin="round" stroke-miterlimit="10" enable-background="new    " cx="-73.2" cy="528.6" r="60.1"/>
	
		<circle fill="none" stroke="#393839" stroke-linecap="round" stroke-linejoin="round" stroke-miterlimit="10" cx="-73.2" cy="528.6" r="60.1"/>
</g>
<path fill="#FFFFFF" d="M-114.5,528.6c0-22.8,18.4-41.4,41.4-41.4s41.3,18.7,41.3,41.4c0,22.7-18.4,41.7-41.4,41.7
	C-96.1,570.3-114.5,551.7-114.5,528.6z"/>
<g>
	
		<path opacity="0.2" fill="none" stroke="#393839" stroke-width="2" stroke-linecap="round" stroke-linejoin="round" stroke-miterlimit="10" enable-background="new    " d="
		M-114.5,528.6c0-22.8,18.4-41.4,41.4-41.4s41.3,18.7,41.3,41.4c0,22.7-18.4,41.7-41.4,41.7C-96.1,570.3-114.5,551.7-114.5,528.6z"
		/>
	<path fill="none" stroke="#393839" stroke-linecap="round" stroke-linejoin="round" stroke-miterlimit="10" d="M-114.5,528.6
		c0-22.8,18.4-41.4,41.4-41.4s41.3,18.7,41.3,41.4c0,22.7-18.4,41.7-41.4,41.7C-96.1,570.3-114.5,551.7-114.5,528.6z"/>
</g>
<polygon fill="#FFFFFF" points="-73.2,547.4 -79.3,535.1 -92.5,533.2 -82.9,523.5 -85.2,510 -73.2,516.4 -61.1,510 -63.2,523.5 
	-53.7,533.2 -66.9,535.1 "/>
<g>
	
		<polygon opacity="0.2" fill="none" stroke="#393839" stroke-width="2" stroke-linecap="round" stroke-linejoin="round" stroke-miterlimit="10" enable-background="new    " points="
		-73.2,547.4 -79.3,535.1 -92.5,533.2 -82.9,523.5 -85.2,510 -73.2,516.4 -61.1,510 -63.2,523.5 -53.7,533.2 -66.9,535.1 	"/>
	<polygon fill="none" stroke="#393839" stroke-linecap="round" stroke-linejoin="round" stroke-miterlimit="10" points="
		-73.2,547.4 -79.3,535.1 -92.5,533.2 -82.9,523.5 -85.2,510 -73.2,516.4 -61.1,510 -63.2,523.5 -53.7,533.2 -66.9,535.1 	"/>
</g>
<circle fill="#0095A8" cx="70.7" cy="528.6" r="80.6"/>
<g>
	
		<circle opacity="0.2" fill="none" stroke="#393839" stroke-width="2" stroke-linecap="round" stroke-linejoin="round" stroke-miterlimit="10" enable-background="new    " cx="70.7" cy="528.6" r="80.6"/>
	
		<circle fill="none" stroke="#393839" stroke-linecap="round" stroke-linejoin="round" stroke-miterlimit="10" cx="70.7" cy="528.6" r="80.6"/>
</g>
<circle fill="#FFFFFF" cx="70.7" cy="528.6" r="61.1"/>
<g>
	
		<circle opacity="0.2" fill="none" stroke="#393839" stroke-width="2" stroke-linecap="round" stroke-linejoin="round" stroke-miterlimit="10" enable-background="new    " cx="70.7" cy="528.6" r="61.1"/>
	
		<circle fill="none" stroke="#393839" stroke-linecap="round" stroke-linejoin="round" stroke-miterlimit="10" cx="70.7" cy="528.6" r="61.1"/>
</g>
<path fill="#F7F7F7" d="M28.6,528.6c0-23.3,18.9-42.2,42.2-42.2s42.2,18.9,42.2,42.2c0,23.3-18.9,42.2-42.2,42.2
	S28.6,551.9,28.6,528.6z"/>
<g>
	
		<path opacity="0.2" fill="none" stroke="#393839" stroke-width="2" stroke-linecap="round" stroke-linejoin="round" stroke-miterlimit="10" enable-background="new    " d="
		M28.6,528.6c0-23.3,18.9-42.2,42.2-42.2s42.2,18.9,42.2,42.2c0,23.3-18.9,42.2-42.2,42.2S28.6,551.9,28.6,528.6z"/>
	<path fill="none" stroke="#393839" stroke-linecap="round" stroke-linejoin="round" stroke-miterlimit="10" d="M28.6,528.6
		c0-23.3,18.9-42.2,42.2-42.2s42.2,18.9,42.2,42.2c0,23.3-18.9,42.2-42.2,42.2S28.6,551.9,28.6,528.6z"/>
</g>
<polygon fill="#FF6600" points="70.7,547.9 64.5,535.3 51,533.2 60.7,523.5 58.8,509.7 70.7,516.4 82.7,509.7 80.8,523.5 
	90.4,533.2 77,535.3 "/>
<g>
	
		<polygon opacity="0.2" fill="none" stroke="#393839" stroke-width="2" stroke-linecap="round" stroke-linejoin="round" stroke-miterlimit="10" enable-background="new    " points="
		70.7,547.9 64.5,535.3 51,533.2 60.7,523.5 58.8,509.7 70.7,516.4 82.7,509.7 80.8,523.5 90.4,533.2 77,535.3 	"/>
	<polygon fill="none" stroke="#393839" stroke-linecap="round" stroke-linejoin="round" stroke-miterlimit="10" points="70.7,547.9 
		64.5,535.3 51,533.2 60.7,523.5 58.8,509.7 70.7,516.4 82.7,509.7 80.8,523.5 90.4,533.2 77,535.3 	"/>
</g>
<polygon fill="#F7F7F7" points="-73.2,746.8 -73.2,648.6 25.2,550.2 25.2,648.6 "/>
<g>
	
		<polygon opacity="0.2" fill="none" stroke="#393839" stroke-width="2" stroke-linecap="round" stroke-linejoin="round" stroke-miterlimit="10" enable-background="new    " points="
		-73.2,746.8 -73.2,648.6 25.2,550.2 25.2,648.6 	"/>
	<polygon fill="none" stroke="#393839" stroke-linecap="round" stroke-linejoin="round" stroke-miterlimit="10" points="
		-73.2,746.8 -73.2,648.6 25.2,550.2 25.2,648.6 	"/>
</g>
<polygon fill="#00616F" points="-171.5,648.6 -73.2,550.2 -73.2,648.6 -171.5,746.8 "/>
<g>
	
		<polygon opacity="0.2" fill="none" stroke="#393839" stroke-width="2" stroke-linecap="round" stroke-linejoin="round" stroke-miterlimit="10" enable-background="new    " points="
		-171.5,648.6 -73.2,550.2 -73.2,648.6 -171.5,746.8 	"/>
	<polygon fill="none" stroke="#393839" stroke-linecap="round" stroke-linejoin="round" stroke-miterlimit="10" points="
		-171.5,648.6 -73.2,550.2 -73.2,648.6 -171.5,746.8 	"/>
</g>
<polygon fill="#ECECEC" points="10.8,648.6 70.7,648.6 130.7,708.4 70.7,708.4 "/>
<g>
	
		<polygon opacity="0.2" fill="none" stroke="#393839" stroke-width="2" stroke-linecap="round" stroke-linejoin="round" stroke-miterlimit="10" enable-background="new    " points="
		10.8,648.6 70.7,648.6 130.7,708.4 70.7,708.4 	"/>
	<polygon fill="none" stroke="#393839" stroke-linecap="round" stroke-linejoin="round" stroke-miterlimit="10" points="10.8,648.6 
		70.7,648.6 130.7,708.4 70.7,708.4 	"/>
</g>
<polygon fill="#ECECEC" points="70.7,588.6 130.7,648.6 70.7,648.6 10.8,588.6 "/>
<g>
	
		<polygon opacity="0.2" fill="none" stroke="#393839" stroke-width="2" stroke-linecap="round" stroke-linejoin="round" stroke-miterlimit="10" enable-background="new    " points="
		70.7,588.6 130.7,648.6 70.7,648.6 10.8,588.6 	"/>
	<polygon fill="none" stroke="#393839" stroke-linecap="round" stroke-linejoin="round" stroke-miterlimit="10" points="70.7,588.6 
		130.7,648.6 70.7,648.6 10.8,588.6 	"/>
</g>
<polygon fill="#FF3300" points="-124,680.1 -73.2,768.4 -110.5,907.7 -161.4,819.4 "/>
<g>
	
		<polygon opacity="0.2" fill="none" stroke="#393839" stroke-width="2" stroke-linecap="round" stroke-linejoin="round" stroke-miterlimit="10" enable-background="new    " points="
		-124,680.1 -73.2,768.4 -110.5,907.7 -161.4,819.4 	"/>
	<polygon fill="none" stroke="#393839" stroke-linecap="round" stroke-linejoin="round" stroke-miterlimit="10" points="-124,680.1 
		-73.2,768.4 -110.5,907.7 -161.4,819.4 	"/>
</g>
<polygon fill="#333333" points="15.2,717.6 -22.2,856.7 -73.2,768.4 -35.8,629.2 "/>
<g>
	
		<polygon opacity="0.2" fill="none" stroke="#393839" stroke-width="2" stroke-linecap="round" stroke-linejoin="round" stroke-miterlimit="10" enable-background="new    " points="
		15.2,717.6 -22.2,856.7 -73.2,768.4 -35.8,629.2 	"/>
	<polygon fill="none" stroke="#393839" stroke-linecap="round" stroke-linejoin="round" stroke-miterlimit="10" points="15.2,717.6 
		-22.2,856.7 -73.2,768.4 -35.8,629.2 	"/>
</g>
<polygon fill="#FFFFFF" points="-8.1,722.9 70.7,768.4 104.1,892.9 25.2,847.3 "/>
<g>
	
		<polygon opacity="0.2" fill="none" stroke="#393839" stroke-width="2" stroke-linecap="round" stroke-linejoin="round" stroke-miterlimit="10" enable-background="new    " points="
		-8.1,722.9 70.7,768.4 104.1,892.9 25.2,847.3 	"/>
	<polygon fill="none" stroke="#393839" stroke-linecap="round" stroke-linejoin="round" stroke-miterlimit="10" points="-8.1,722.9 
		70.7,768.4 104.1,892.9 25.2,847.3 	"/>
</g>
<polygon fill="#333333" points="116.3,689.5 149.7,813.9 70.7,768.4 37.5,643.9 "/>
<g>
	
		<polygon opacity="0.2" fill="none" stroke="#393839" stroke-width="2" stroke-linecap="round" stroke-linejoin="round" stroke-miterlimit="10" enable-background="new    " points="
		116.3,689.5 149.7,813.9 70.7,768.4 37.5,643.9 	"/>
	<polygon fill="none" stroke="#393839" stroke-linecap="round" stroke-linejoin="round" stroke-miterlimit="10" points="
		116.3,689.5 149.7,813.9 70.7,768.4 37.5,643.9 	"/>
</g>
<path fill="#FFFFFF" d="M-32.9,818.7c38.4,22.3,51.5,71.5,29.6,109.8c-22.3,38.4-71.5,51.5-109.8,29.6
	c-38.4-22.3-51.5-71.5-29.6-109.8C-120.7,809.7-71.4,796.4-32.9,818.7z"/>
<g>
	
		<path opacity="0.2" fill="none" stroke="#393839" stroke-width="2" stroke-linecap="round" stroke-linejoin="round" stroke-miterlimit="10" enable-background="new    " d="
		M-32.9,818.7c38.4,22.3,51.5,71.5,29.6,109.8c-22.3,38.4-71.5,51.5-109.8,29.6c-38.4-22.3-51.5-71.5-29.6-109.8
		C-120.7,809.7-71.4,796.4-32.9,818.7z"/>
	<path fill="none" stroke="#393839" stroke-linecap="round" stroke-linejoin="round" stroke-miterlimit="10" d="M-32.9,818.7
		c38.4,22.3,51.5,71.5,29.6,109.8c-22.3,38.4-71.5,51.5-109.8,29.6c-38.4-22.3-51.5-71.5-29.6-109.8
		C-120.7,809.7-71.4,796.4-32.9,818.7z"/>
</g>
<path fill="#FF3300" d="M-42.7,835.5c29.3,16.7,39.3,54.1,22.3,83.5c-17,29.3-54.1,39.3-83.5,22.3s-39.3-54.1-22.3-83.5
	C-109,828.6-72,818.5-42.7,835.5z"/>
<g>
	
		<path opacity="0.2" fill="none" stroke="#393839" stroke-width="2" stroke-linecap="round" stroke-linejoin="round" stroke-miterlimit="10" enable-background="new    " d="
		M-42.7,835.5c29.3,16.7,39.3,54.1,22.3,83.5c-17,29.3-54.1,39.3-83.5,22.3s-39.3-54.1-22.3-83.5C-109,828.6-72,818.5-42.7,835.5z"
		/>
	<path fill="none" stroke="#393839" stroke-linecap="round" stroke-linejoin="round" stroke-miterlimit="10" d="M-42.7,835.5
		c29.3,16.7,39.3,54.1,22.3,83.5c-17,29.3-54.1,39.3-83.5,22.3s-39.3-54.1-22.3-83.5C-109,828.6-72,818.5-42.7,835.5z"/>
</g>
<path fill="#333333" d="M-52,851.8c20.1,11.8,27.2,37.4,15.3,57.5c-11.5,20.1-37.4,27.2-57.5,15.3c-20.1-11.8-27.2-37.4-15.3-57.5
	C-98,847.1-72.2,840.3-52,851.8z"/>
<g>
	
		<path opacity="0.2" fill="none" stroke="#393839" stroke-width="2" stroke-linecap="round" stroke-linejoin="round" stroke-miterlimit="10" enable-background="new    " d="
		M-52,851.8c20.1,11.8,27.2,37.4,15.3,57.5c-11.5,20.1-37.4,27.2-57.5,15.3c-20.1-11.8-27.2-37.4-15.3-57.5
		C-98,847.1-72.2,840.3-52,851.8z"/>
	<path fill="none" stroke="#393839" stroke-linecap="round" stroke-linejoin="round" stroke-miterlimit="10" d="M-52,851.8
		c20.1,11.8,27.2,37.4,15.3,57.5c-11.5,20.1-37.4,27.2-57.5,15.3c-20.1-11.8-27.2-37.4-15.3-57.5C-98,847.1-72.2,840.3-52,851.8z"/>
</g>
<polygon fill="#FFFFFF" points="-89.7,878.9 -75.8,879.6 -67.1,869 -63.5,882.2 -50.6,887.2 -62.3,894.6 -62.7,908.4 -73.6,899.5 
	-86.8,903.1 -82,890.5 "/>
<g>
	
		<polygon opacity="0.2" fill="none" stroke="#393839" stroke-width="2" stroke-linecap="round" stroke-linejoin="round" stroke-miterlimit="10" enable-background="new    " points="
		-89.7,878.9 -75.8,879.6 -67.1,869 -63.5,882.2 -50.6,887.2 -62.3,894.6 -62.7,908.4 -73.6,899.5 -86.8,903.1 -82,890.5 	"/>
	<polygon fill="none" stroke="#393839" stroke-linecap="round" stroke-linejoin="round" stroke-miterlimit="10" points="
		-89.7,878.9 -75.8,879.6 -67.1,869 -63.5,882.2 -50.6,887.2 -62.3,894.6 -62.7,908.4 -73.6,899.5 -86.8,903.1 -82,890.5 	"/>
</g>
<path fill="#0095A8" d="M70.7,974.2c-47.5,0-86.1-38.6-86.1-86.1c0-47.5,38.6-86.1,86.1-86.1s86.1,38.6,86.1,86.1
	C156.8,935.6,118.2,974.2,70.7,974.2z"/>
<g>
	
		<path opacity="0.2" fill="none" stroke="#393839" stroke-width="2" stroke-linecap="round" stroke-linejoin="round" stroke-miterlimit="10" enable-background="new    " d="
		M70.7,974.2c-47.5,0-86.1-38.6-86.1-86.1c0-47.5,38.6-86.1,86.1-86.1s86.1,38.6,86.1,86.1C156.8,935.6,118.2,974.2,70.7,974.2z"/>
	<path fill="none" stroke="#393839" stroke-linecap="round" stroke-linejoin="round" stroke-miterlimit="10" d="M70.7,974.2
		c-47.5,0-86.1-38.6-86.1-86.1c0-47.5,38.6-86.1,86.1-86.1s86.1,38.6,86.1,86.1C156.8,935.6,118.2,974.2,70.7,974.2z"/>
</g>
<path fill="#FF3300" d="M70.7,953.7c-36.2,0-65.5-29.3-65.5-65.5s29.3-65.5,65.5-65.5s65.5,29.3,65.5,65.5S107,953.7,70.7,953.7z"/>
<g>
	
		<path opacity="0.2" fill="none" stroke="#393839" stroke-width="2" stroke-linecap="round" stroke-linejoin="round" stroke-miterlimit="10" enable-background="new    " d="
		M70.7,953.7c-36.2,0-65.5-29.3-65.5-65.5s29.3-65.5,65.5-65.5s65.5,29.3,65.5,65.5S107,953.7,70.7,953.7z"/>
	<path fill="none" stroke="#393839" stroke-linecap="round" stroke-linejoin="round" stroke-miterlimit="10" d="M70.7,953.7
		c-36.2,0-65.5-29.3-65.5-65.5s29.3-65.5,65.5-65.5s65.5,29.3,65.5,65.5S107,953.7,70.7,953.7z"/>
</g>
<circle fill="#FF3300" cx="70.7" cy="888.2" r="45.1"/>
<g>
	
		<circle opacity="0.2" fill="none" stroke="#393839" stroke-width="2" stroke-linecap="round" stroke-linejoin="round" stroke-miterlimit="10" enable-background="new    " cx="70.7" cy="888.2" r="45.1"/>
	
		<circle fill="none" stroke="#393839" stroke-linecap="round" stroke-linejoin="round" stroke-miterlimit="10" cx="70.7" cy="888.2" r="45.1"/>
</g>
<polygon fill="#FF3300" points="91.1,888.2 77.7,895 75.6,909.4 65.3,899.1 50.3,901.2 57.5,888.2 50.3,875.3 65.3,877.7 
	75.6,867.4 77.7,881.8 "/>
<g>
	
		<polygon opacity="0.2" fill="none" stroke="#393839" stroke-width="2" stroke-linecap="round" stroke-linejoin="round" stroke-miterlimit="10" enable-background="new    " points="
		91.1,888.2 77.7,895 75.6,909.4 65.3,899.1 50.3,901.2 57.5,888.2 50.3,875.3 65.3,877.7 75.6,867.4 77.7,881.8 	"/>
	<polygon fill="none" stroke="#393839" stroke-linecap="round" stroke-linejoin="round" stroke-miterlimit="10" points="91.1,888.2 
		77.7,895 75.6,909.4 65.3,899.1 50.3,901.2 57.5,888.2 50.3,875.3 65.3,877.7 75.6,867.4 77.7,881.8 	"/>
</g>
<path fill="#ECECEC" d="M-125.2,1098.3c-49.6-28.8-66.7-92.3-38.1-141.9c28.8-49.6,92.3-66.7,141.9-38.1
	c49.6,28.8,66.7,92.3,38.1,141.9C-11.8,1109.7-75.3,1126.8-125.2,1098.3z"/>
<g>
	
		<path opacity="0.2" fill="none" stroke="#393839" stroke-width="2" stroke-linecap="round" stroke-linejoin="round" stroke-miterlimit="10" enable-background="new    " d="
		M-125.2,1098.3c-49.6-28.8-66.7-92.3-38.1-141.9c28.8-49.6,92.3-66.7,141.9-38.1c49.6,28.8,66.7,92.3,38.1,141.9
		C-11.8,1109.7-75.3,1126.8-125.2,1098.3z"/>
	<path fill="none" stroke="#393839" stroke-linecap="round" stroke-linejoin="round" stroke-miterlimit="10" d="M-125.2,1098.3
		c-49.6-28.8-66.7-92.3-38.1-141.9c28.8-49.6,92.3-66.7,141.9-38.1c49.6,28.8,66.7,92.3,38.1,141.9
		C-11.8,1109.7-75.3,1126.8-125.2,1098.3z"/>
</g>
<path fill="#ECECEC" d="M-112.6,1076.5c-37.9-21.8-50.6-70-29.1-107.8c21.5-37.9,70-50.6,107.8-28.8c37.9,21.9,50.6,70,29.1,107.8
	S-74.8,1098.3-112.6,1076.5z"/>
<g>
	
		<path opacity="0.2" fill="none" stroke="#393839" stroke-width="2" stroke-linecap="round" stroke-linejoin="round" stroke-miterlimit="10" enable-background="new    " d="
		M-112.6,1076.5c-37.9-21.8-50.6-70-29.1-107.8c21.5-37.9,70-50.6,107.8-28.8c37.9,21.9,50.6,70,29.1,107.8
		S-74.8,1098.3-112.6,1076.5z"/>
	<path fill="none" stroke="#393839" stroke-linecap="round" stroke-linejoin="round" stroke-miterlimit="10" d="M-112.6,1076.5
		c-37.9-21.8-50.6-70-29.1-107.8c21.5-37.9,70-50.6,107.8-28.8c37.9,21.9,50.6,70,29.1,107.8S-74.8,1098.3-112.6,1076.5z"/>
</g>
<path fill="#00616F" d="M-100.1,1055.3c-26.2-15.1-35-48.2-19.8-74.3c15.1-26.2,48.2-35,74.3-19.8c26,15.1,35,48.2,19.8,74.3
	C-41,1061.3-74.4,1070.5-100.1,1055.3z"/>
<g>
	
		<path opacity="0.2" fill="none" stroke="#393839" stroke-width="2" stroke-linecap="round" stroke-linejoin="round" stroke-miterlimit="10" enable-background="new    " d="
		M-100.1,1055.3c-26.2-15.1-35-48.2-19.8-74.3c15.1-26.2,48.2-35,74.3-19.8c26,15.1,35,48.2,19.8,74.3
		C-41,1061.3-74.4,1070.5-100.1,1055.3z"/>
	<path fill="none" stroke="#393839" stroke-linecap="round" stroke-linejoin="round" stroke-miterlimit="10" d="M-100.1,1055.3
		c-26.2-15.1-35-48.2-19.8-74.3c15.1-26.2,48.2-35,74.3-19.8c26,15.1,35,48.2,19.8,74.3C-41,1061.3-74.4,1070.5-100.1,1055.3z"/>
</g>
<polygon fill="#F7F7F7" points="-51.8,1020.3 -69.7,1019.4 -80.8,1033.1 -85.4,1016 -102.1,1009.5 -87.1,1000.2 -86.6,982.5 
	-72.5,993.8 -55.4,989.2 -61.8,1005.5 "/>
<g>
	
		<polygon opacity="0.2" fill="none" stroke="#393839" stroke-width="2" stroke-linecap="round" stroke-linejoin="round" stroke-miterlimit="10" enable-background="new    " points="
		-51.8,1020.3 -69.7,1019.4 -80.8,1033.1 -85.4,1016 -102.1,1009.5 -87.1,1000.2 -86.6,982.5 -72.5,993.8 -55.4,989.2 -61.8,1005.5 
			"/>
	<polygon fill="none" stroke="#393839" stroke-linecap="round" stroke-linejoin="round" stroke-miterlimit="10" points="
		-51.8,1020.3 -69.7,1019.4 -80.8,1033.1 -85.4,1016 -102.1,1009.5 -87.1,1000.2 -86.6,982.5 -72.5,993.8 -55.4,989.2 -61.8,1005.5 
			"/>
</g>
<circle fill="#FFFFFF" cx="70.7" cy="1008.1" r="97.1"/>
<g>
	
		<circle opacity="0.2" fill="none" stroke="#393839" stroke-width="2" stroke-linecap="round" stroke-linejoin="round" stroke-miterlimit="10" enable-background="new    " cx="70.7" cy="1008.1" r="97.1"/>
	
		<circle fill="none" stroke="#393839" stroke-linecap="round" stroke-linejoin="round" stroke-miterlimit="10" cx="70.7" cy="1008.1" r="97.1"/>
</g>
<circle fill="#ECECEC" cx="70.7" cy="1008.1" r="73.8"/>
<g>
	
		<circle opacity="0.2" fill="none" stroke="#393839" stroke-width="2" stroke-linecap="round" stroke-linejoin="round" stroke-miterlimit="10" enable-background="new    " cx="70.7" cy="1008.1" r="73.8"/>
	
		<circle fill="none" stroke="#393839" stroke-linecap="round" stroke-linejoin="round" stroke-miterlimit="10" cx="70.7" cy="1008.1" r="73.8"/>
</g>
<path fill="#ECECEC" d="M19.9,1008.1c0-28.1,22.8-50.8,50.8-50.8c28.1,0,50.8,22.8,50.8,50.8c0,28-22.8,50.8-50.8,50.8
	C42.7,1058.9,19.9,1036.4,19.9,1008.1z"/>
<g>
	
		<path opacity="0.2" fill="none" stroke="#393839" stroke-width="2" stroke-linecap="round" stroke-linejoin="round" stroke-miterlimit="10" enable-background="new    " d="
		M19.9,1008.1c0-28.1,22.8-50.8,50.8-50.8c28.1,0,50.8,22.8,50.8,50.8c0,28-22.8,50.8-50.8,50.8
		C42.7,1058.9,19.9,1036.4,19.9,1008.1z"/>
	<path fill="none" stroke="#393839" stroke-linecap="round" stroke-linejoin="round" stroke-miterlimit="10" d="M19.9,1008.1
		c0-28.1,22.8-50.8,50.8-50.8c28.1,0,50.8,22.8,50.8,50.8c0,28-22.8,50.8-50.8,50.8C42.7,1058.9,19.9,1036.4,19.9,1008.1z"/>
</g>
<polygon fill="#ECECEC" points="70.7,1031.2 63.4,1016 47,1013.7 58.5,1001.9 56.1,985.4 70.7,993.2 85.3,985.4 83,1001.9 
	94.5,1013.7 78.2,1016 "/>
<g>
	
		<polygon opacity="0.2" fill="none" stroke="#393839" stroke-width="2" stroke-linecap="round" stroke-linejoin="round" stroke-miterlimit="10" enable-background="new    " points="
		70.7,1031.2 63.4,1016 47,1013.7 58.5,1001.9 56.1,985.4 70.7,993.2 85.3,985.4 83,1001.9 94.5,1013.7 78.2,1016 	"/>
	<polygon fill="none" stroke="#393839" stroke-linecap="round" stroke-linejoin="round" stroke-miterlimit="10" points="
		70.7,1031.2 63.4,1016 47,1013.7 58.5,1001.9 56.1,985.4 70.7,993.2 85.3,985.4 83,1001.9 94.5,1013.7 78.2,1016 	"/>
</g>
<polygon fill="#F7F7F7" points="-8.8,1090.8 -73.2,1128 -174.6,1100.9 -110.2,1063.8 "/>
<g>
	
		<polygon opacity="0.2" fill="none" stroke="#393839" stroke-width="2" stroke-linecap="round" stroke-linejoin="round" stroke-miterlimit="10" enable-background="new    " points="
		-8.8,1090.8 -73.2,1128 -174.6,1100.9 -110.2,1063.8 	"/>
	<polygon fill="none" stroke="#393839" stroke-linecap="round" stroke-linejoin="round" stroke-miterlimit="10" points="
		-8.8,1090.8 -73.2,1128 -174.6,1100.9 -110.2,1063.8 	"/>
</g>
<polygon fill="#ECECEC" points="-36,1192.5 -137.6,1165.2 -73.2,1128 28.3,1155.4 "/>
<g>
	
		<polygon opacity="0.2" fill="none" stroke="#393839" stroke-width="2" stroke-linecap="round" stroke-linejoin="round" stroke-miterlimit="10" enable-background="new    " points="
		-36,1192.5 -137.6,1165.2 -73.2,1128 28.3,1155.4 	"/>
	<polygon fill="none" stroke="#393839" stroke-linecap="round" stroke-linejoin="round" stroke-miterlimit="10" points="-36,1192.5 
		-137.6,1165.2 -73.2,1128 28.3,1155.4 	"/>
</g>
<polygon fill="#ECECEC" points="171.4,1186.3 70.7,1128 28.1,969.3 128.8,1027.3 "/>
<g>
	
		<polygon opacity="0.2" fill="none" stroke="#393839" stroke-width="2" stroke-linecap="round" stroke-linejoin="round" stroke-miterlimit="10" enable-background="new    " points="
		171.4,1186.3 70.7,1128 28.1,969.3 128.8,1027.3 	"/>
	<polygon fill="none" stroke="#393839" stroke-linecap="round" stroke-linejoin="round" stroke-miterlimit="10" points="
		171.4,1186.3 70.7,1128 28.1,969.3 128.8,1027.3 	"/>
</g>
<polygon fill="#F7F7F7" points="12.7,1228.7 -30,1070 70.7,1128 113.5,1287 "/>
<g>
	
		<polygon opacity="0.2" fill="none" stroke="#393839" stroke-width="2" stroke-linecap="round" stroke-linejoin="round" stroke-miterlimit="10" enable-background="new    " points="
		12.7,1228.7 -30,1070 70.7,1128 113.5,1287 	"/>
	<polygon fill="none" stroke="#393839" stroke-linecap="round" stroke-linejoin="round" stroke-miterlimit="10" points="
		12.7,1228.7 -30,1070 70.7,1128 113.5,1287 	"/>
</g>
</svg>
