<?xml version="1.0" encoding="utf-8"?>
<!-- Generator: Adobe Illustrator 18.1.0, SVG Export Plug-In . SVG Version: 6.00 Build 0)  -->
<svg version="1.1" id="Your_Icon" xmlns="http://www.w3.org/2000/svg" xmlns:xlink="http://www.w3.org/1999/xlink" x="0px" y="0px"
	 viewBox="-381 383 43.9 66.7" enable-background="new -381 383 43.9 66.7" xml:space="preserve">
<path d="M-338.4,383h-41.3c-0.7,0-1.3,0.6-1.3,1.4v63.8c0,0.8,0.6,1.4,1.3,1.4h41.3c0.7,0,1.3-0.6,1.3-1.4v-63.8
	C-337.1,383.6-337.7,383-338.4,383z M-359,390.9c3.6,0,6.4,2.9,6.4,6.4c0,3.6-2.9,6.4-6.4,6.4c-3.6,0-6.4-2.9-6.4-6.4
	C-365.5,393.8-362.6,390.9-359,390.9z M-376.2,385.9c1.1,0,1.9,0.9,1.9,1.9c0,1.1-0.9,1.9-1.9,1.9c-1.1,0-1.9-0.9-1.9-1.9
	C-378.1,386.8-377.3,385.9-376.2,385.9z M-376.2,446.8c-1.1,0-1.9-0.9-1.9-1.9c0-1.1,0.9-1.9,1.9-1.9c1.1,0,1.9,0.9,1.9,1.9
	C-374.3,445.9-375.2,446.8-376.2,446.8z M-359,436.9c-8.4,0-15.3-6.8-15.3-15.3c0-8.4,6.8-15.3,15.3-15.3c8.4,0,15.3,6.8,15.3,15.3
	C-343.8,430.1-350.6,436.9-359,436.9z M-341.9,446.8c-1.1,0-1.9-0.9-1.9-1.9c0-1.1,0.9-1.9,1.9-1.9c1.1,0,1.9,0.9,1.9,1.9
	C-339.9,445.9-340.8,446.8-341.9,446.8z M-341.9,389.8c-1.1,0-1.9-0.9-1.9-1.9c0-1.1,0.9-1.9,1.9-1.9c1.1,0,1.9,0.9,1.9,1.9
	C-339.9,388.9-340.8,389.8-341.9,389.8z M-347.3,421.4c0,6.4-5.2,11.7-11.7,11.7c-6.4,0-11.7-5.2-11.7-11.7
	c0-6.4,5.2-11.7,11.7-11.7C-352.6,409.7-347.3,415-347.3,421.4z M-354.2,397.4c0,2.7-2.2,4.9-4.9,4.9c-2.7,0-4.9-2.2-4.9-4.9
	c0-2.7,2.2-4.9,4.9-4.9C-356.3,392.5-354.2,394.7-354.2,397.4z"/>
</svg>
